<svg width="32" height="32" viewBox="0 0 32 32" fill="none" xmlns="http://www.w3.org/2000/svg">
<g clip-path="url(#clip0_102_110)">
<path d="M12.5333 14L18.8933 2.98669C17.96 2.78669 17 2.66669 16 2.66669C12.8 2.66669 9.86663 3.80002 7.57329 5.66669L12.4533 14.1334L12.5333 14ZM28.72 12C27.4933 8.10669 24.52 4.98669 20.72 3.54669L15.84 12H28.72ZM29.0666 13.3334H19.08L19.4666 14L25.8133 25C28 22.6267 29.3333 19.48 29.3333 16C29.3333 15.08 29.24 14.2 29.0666 13.3334ZM11.3866 16L6.18663 7.00002C4.01329 9.37335 2.66663 12.52 2.66663 16C2.66663 16.92 2.75996 17.8 2.93329 18.6667H12.92L11.3866 16V16ZM3.27996 20C4.50663 23.8934 7.47996 27.0134 11.28 28.4534L16.16 20H3.27996V20ZM18.3066 20L13.1066 29.0134C14.04 29.2134 15 29.3334 16 29.3334C19.2 29.3334 22.1333 28.2 24.4266 26.3334L19.5466 17.8667L18.3066 20V20Z" fill="black"/>
</g>
<defs>
<clipPath id="clip0_102_110">
<rect width="32" height="32" fill="white"/>
</clipPath>
</defs>
</svg>
