<svg width="42" height="42" viewBox="0 0 42 42" fill="none" xmlns="http://www.w3.org/2000/svg">
<g clip-path="url(#clip0_103_113)">
<path d="M21 26.6C24.0928 26.6 26.6 24.0928 26.6 21C26.6 17.9072 24.0928 15.4 21 15.4C17.9072 15.4 15.4 17.9072 15.4 21C15.4 24.0928 17.9072 26.6 21 26.6Z" fill="black"/>
<path d="M15.75 3.5L12.5475 7H7C5.075 7 3.5 8.575 3.5 10.5V31.5C3.5 33.425 5.075 35 7 35H35C36.925 35 38.5 33.425 38.5 31.5V10.5C38.5 8.575 36.925 7 35 7H29.4525L26.25 3.5H15.75ZM21 29.75C16.17 29.75 12.25 25.83 12.25 21C12.25 16.17 16.17 12.25 21 12.25C25.83 12.25 29.75 16.17 29.75 21C29.75 25.83 25.83 29.75 21 29.75Z" fill="black"/>
</g>
<defs>
<clipPath id="clip0_103_113">
<rect width="42" height="42" fill="white"/>
</clipPath>
</defs>
</svg>
