<svg width="24" height="25" viewBox="0 0 24 25" fill="none" xmlns="http://www.w3.org/2000/svg">
<path d="M9.85996 18.2223C9.72285 18.2219 9.58729 18.1932 9.4617 18.1382C9.33612 18.0831 9.2232 18.0029 9.12996 17.9023L4.26996 12.7323C4.08829 12.5387 3.99097 12.2809 3.99941 12.0155C4.00785 11.7501 4.12136 11.499 4.31496 11.3173C4.50857 11.1356 4.76642 11.0383 5.03178 11.0468C5.29715 11.0552 5.54829 11.1687 5.72996 11.3623L9.84996 15.7523L18.26 6.55232C18.3453 6.44604 18.4515 6.35834 18.572 6.29459C18.6924 6.23083 18.8247 6.19239 18.9606 6.1816C19.0964 6.17082 19.2331 6.18793 19.3621 6.23187C19.4911 6.27582 19.6098 6.34568 19.7108 6.43717C19.8119 6.52865 19.8932 6.63983 19.9497 6.76387C20.0062 6.8879 20.0367 7.02218 20.0395 7.15846C20.0422 7.29474 20.017 7.43013 19.9655 7.55633C19.914 7.68253 19.8373 7.79687 19.74 7.89232L10.6 17.8923C10.5076 17.9947 10.3951 18.0768 10.2695 18.1336C10.1438 18.1904 10.0078 18.2206 9.86996 18.2223H9.85996Z" fill="white"/>
</svg>
