<svg width="24" height="25" viewBox="0 0 24 25" fill="none" xmlns="http://www.w3.org/2000/svg">
<path d="M13.41 12.2224L17.71 7.93235C17.8983 7.74405 18.0041 7.48866 18.0041 7.22235C18.0041 6.95605 17.8983 6.70066 17.71 6.51235C17.5217 6.32405 17.2663 6.21826 17 6.21826C16.7337 6.21826 16.4783 6.32405 16.29 6.51235L12 10.8124L7.71 6.51235C7.5217 6.32405 7.2663 6.21826 7 6.21826C6.7337 6.21826 6.4783 6.32405 6.29 6.51235C6.1017 6.70066 5.99591 6.95605 5.99591 7.22235C5.99591 7.48866 6.1017 7.74405 6.29 7.93235L10.59 12.2224L6.29 16.5124C6.19627 16.6053 6.12188 16.7159 6.07111 16.8378C6.02034 16.9596 5.9942 17.0903 5.9942 17.2224C5.9942 17.3544 6.02034 17.4851 6.07111 17.6069C6.12188 17.7288 6.19627 17.8394 6.29 17.9324C6.38296 18.0261 6.49356 18.1005 6.61542 18.1512C6.73728 18.202 6.86799 18.2282 7 18.2282C7.13201 18.2282 7.26272 18.202 7.38458 18.1512C7.50644 18.1005 7.61704 18.0261 7.71 17.9324L12 13.6324L16.29 17.9324C16.383 18.0261 16.4936 18.1005 16.6154 18.1512C16.7373 18.202 16.868 18.2282 17 18.2282C17.132 18.2282 17.2627 18.202 17.3846 18.1512C17.5064 18.1005 17.617 18.0261 17.71 17.9324C17.8037 17.8394 17.8781 17.7288 17.9289 17.6069C17.9797 17.4851 18.0058 17.3544 18.0058 17.2224C18.0058 17.0903 17.9797 16.9596 17.9289 16.8378C17.8781 16.7159 17.8037 16.6053 17.71 16.5124L13.41 12.2224Z" fill="white"/>
</svg>
