<svg width="32" height="32" viewBox="0 0 32 32" fill="none" xmlns="http://www.w3.org/2000/svg">
<path d="M29.85 25.5261C29.7604 25.6709 29.6353 25.7905 29.4866 25.8734C29.3378 25.9564 29.1703 26 29 26.0001H19C18.7348 26.0001 18.4805 25.8947 18.2929 25.7072C18.1054 25.5196 18 25.2653 18 25.0001V5.00006C18 4.77487 18.0761 4.55629 18.2158 4.37969C18.3555 4.20309 18.5507 4.07881 18.7698 4.02698C18.989 3.97514 19.2192 3.99879 19.4232 4.09408C19.6272 4.18938 19.7931 4.35074 19.894 4.55206L29.894 24.5521C29.9704 24.7047 30.0065 24.8743 29.9988 25.0448C29.9911 25.2153 29.9399 25.381 29.85 25.5261ZM20 9.23606V24.0001H27.382L20 9.23606ZM3.00003 26.0001C2.8295 26 2.66181 25.9564 2.51288 25.8734C2.36396 25.7903 2.23876 25.6705 2.14917 25.5254C2.05958 25.3803 2.00859 25.2147 2.00104 25.0443C1.99349 24.874 2.02963 24.7045 2.10603 24.5521L12.106 4.55206C12.2069 4.35074 12.3728 4.18938 12.5768 4.09408C12.7809 3.99879 13.0111 3.97514 13.2302 4.02698C13.4493 4.07881 13.6446 4.20309 13.7843 4.37969C13.924 4.55629 14 4.77487 14 5.00006V25.0001C14 25.2653 13.8947 25.5196 13.7071 25.7072C13.5196 25.8947 13.2652 26.0001 13 26.0001H3.00003Z" fill="black"/>
</svg>
