<svg width="32" height="32" viewBox="0 0 32 32" fill="none" xmlns="http://www.w3.org/2000/svg">
<path d="M17.3333 14.6666H21.3333V17.3333H17.3333V21.3333H14.6666V17.3333H10.6666V14.6666H14.6666V10.6666H17.3333V14.6666ZM29.3333 7.33329V21.3333L21.3333 29.3333H7.33329C4.79996 29.3333 2.66663 27.2 2.66663 24.6666V7.33329C2.66663 4.79996 4.79996 2.66663 7.33329 2.66663H24.6666C27.2 2.66663 29.3333 4.79996 29.3333 7.33329ZM26.6666 7.73329C26.6666 6.39996 25.6 5.33329 24.2666 5.33329H7.73329C6.39996 5.33329 5.33329 6.39996 5.33329 7.73329V24.4C5.33329 25.7333 6.39996 26.8 7.73329 26.8H20V24.8C20 22.2666 22.1333 20.1333 24.6666 20.1333H26.6666V7.73329Z" fill="black"/>
</svg>
