<svg width="28" height="28" viewBox="0 0 28 28" fill="none" xmlns="http://www.w3.org/2000/svg">
<path d="M14 2.79999C11.2293 2.79999 8.68263 3.8112 6.72656 5.48332C6.62852 5.56137 6.54719 5.65837 6.48744 5.76853C6.42768 5.87869 6.39072 5.99975 6.37876 6.1245C6.3668 6.24925 6.38008 6.37513 6.41781 6.49463C6.45554 6.61414 6.51695 6.72482 6.59838 6.82009C6.67981 6.91535 6.77958 6.99324 6.89176 7.04911C7.00393 7.10499 7.12621 7.1377 7.2513 7.1453C7.37639 7.15291 7.50173 7.13524 7.61985 7.09336C7.73796 7.05149 7.84644 6.98625 7.9388 6.90155C9.57047 5.50674 11.6822 4.66665 14 4.66665C18.8501 4.66665 22.8209 8.34205 23.2878 13.0667H20.5333L24.2667 18.6667L28 13.0667H25.1526C24.6754 7.3282 19.8593 2.79999 14 2.79999ZM3.73333 9.33332L0 14.9333H2.8474C3.3246 20.6718 8.14068 25.2 14 25.2C16.7707 25.2 19.3174 24.1888 21.2734 22.5167C21.3715 22.4386 21.4528 22.3416 21.5126 22.2314C21.5723 22.1213 21.6093 22.0002 21.6212 21.8755C21.6332 21.7507 21.6199 21.6248 21.5822 21.5053C21.5445 21.3858 21.4831 21.2752 21.4016 21.1799C21.3202 21.0846 21.2204 21.0067 21.1082 20.9509C20.9961 20.895 20.8738 20.8623 20.7487 20.8547C20.6236 20.8471 20.4983 20.8647 20.3802 20.9066C20.262 20.9485 20.1536 21.0137 20.0612 21.0984C18.4295 22.4932 16.3178 23.3333 14 23.3333C9.14988 23.3333 5.17908 19.6579 4.71224 14.9333H7.46667L3.73333 9.33332Z" fill="white"/>
</svg>
