<svg width="32" height="32" viewBox="0 0 32 32" fill="none" xmlns="http://www.w3.org/2000/svg">
<path d="M7.46666 4.26666C7.19372 4.26666 6.92049 4.37062 6.71249 4.57916L4.57916 6.71249C4.16209 7.12956 4.16209 7.80482 4.57916 8.22082L12.3583 16L4.57916 23.7792C4.16209 24.1962 4.16209 24.8715 4.57916 25.2875L6.71249 27.4208C7.12956 27.8379 7.80482 27.8379 8.22082 27.4208L16 19.6417L23.7792 27.4208C24.1952 27.8379 24.8715 27.8379 25.2875 27.4208L27.4208 25.2875C27.8379 24.8704 27.8379 24.1952 27.4208 23.7792L19.6417 16L27.4208 8.22082C27.8379 7.80482 27.8379 7.12849 27.4208 6.71249L25.2875 4.57916C24.8704 4.16209 24.1952 4.16209 23.7792 4.57916L16 12.3583L8.22082 4.57916C8.01229 4.37062 7.73959 4.26666 7.46666 4.26666Z" fill="black"/>
</svg>
