<svg width="32" height="32" viewBox="0 0 32 32" fill="none" xmlns="http://www.w3.org/2000/svg">
<path d="M13.3334 12C13.3334 12.3536 13.1929 12.6928 12.9428 12.9428C12.6928 13.1929 12.3536 13.3334 12 13.3334C11.6464 13.3334 11.3073 13.1929 11.0572 12.9428C10.8072 12.6928 10.6667 12.3536 10.6667 12C10.6667 11.6464 10.8072 11.3073 11.0572 11.0572C11.3073 10.8072 11.6464 10.6667 12 10.6667C12.3536 10.6667 12.6928 10.8072 12.9428 11.0572C13.1929 11.3073 13.3334 11.6464 13.3334 12V12ZM20 13.3334C20.3536 13.3334 20.6928 13.1929 20.9428 12.9428C21.1929 12.6928 21.3334 12.3536 21.3334 12C21.3334 11.6464 21.1929 11.3073 20.9428 11.0572C20.6928 10.8072 20.3536 10.6667 20 10.6667C19.6464 10.6667 19.3073 10.8072 19.0572 11.0572C18.8072 11.3073 18.6667 11.6464 18.6667 12C18.6667 12.3536 18.8072 12.6928 19.0572 12.9428C19.3073 13.1929 19.6464 13.3334 20 13.3334V13.3334ZM2.66669 8.00002C2.66669 6.58553 3.22859 5.22898 4.22878 4.22878C5.22898 3.22859 6.58553 2.66669 8.00002 2.66669H24C25.4145 2.66669 26.7711 3.22859 27.7713 4.22878C28.7715 5.22898 29.3334 6.58553 29.3334 8.00002V20C29.3337 20.1752 29.2994 20.3488 29.2326 20.5108C29.1658 20.6727 29.0678 20.82 28.944 20.944L20.944 28.944C20.82 29.0678 20.6727 29.1658 20.5108 29.2326C20.3488 29.2994 20.1752 29.3337 20 29.3334H8.00002C6.58553 29.3334 5.22898 28.7715 4.22878 27.7713C3.22859 26.7711 2.66669 25.4145 2.66669 24V8.00002ZM8.00002 5.33335C7.29278 5.33335 6.6145 5.61431 6.1144 6.1144C5.61431 6.6145 5.33335 7.29278 5.33335 8.00002V24C5.33335 24.7073 5.61431 25.3855 6.1144 25.8856C6.6145 26.3857 7.29278 26.6667 8.00002 26.6667H16V21.36H15.9894C14.1814 21.36 12.864 20.448 12.056 19.6347C11.5789 19.154 11.1698 18.6103 10.84 18.0187L10.8187 17.9787L10.8134 17.9654L10.8107 17.96L10.808 17.9574C10.6563 17.6373 10.638 17.2701 10.757 16.9366C10.876 16.603 11.1227 16.3304 11.4427 16.1787C11.7627 16.027 12.1299 16.0086 12.4635 16.1276C12.797 16.2467 13.0697 16.4933 13.2214 16.8134C13.4214 17.155 13.6633 17.4703 13.9414 17.752C14.464 18.2747 15.1414 18.6934 15.9894 18.6934C16.2559 18.6937 16.5207 18.6505 16.7734 18.5654C17.7067 17.0267 19.4 16 21.3334 16H26.6667V8.00002C26.6667 7.29278 26.3857 6.6145 25.8856 6.1144C25.3855 5.61431 24.7073 5.33335 24 5.33335H8.00002ZM26.6667 18.6667H21.3334C20.6261 18.6667 19.9478 18.9476 19.4477 19.4477C18.9476 19.9478 18.6667 20.6261 18.6667 21.3334V26.6667H19.448L26.6667 19.448V18.6667Z" fill="black"/>
</svg>
