<svg width="32" height="32" viewBox="0 0 32 32" fill="none" xmlns="http://www.w3.org/2000/svg">
<path d="M6.47401 2.15001C6.32915 2.2396 6.20958 2.3647 6.12663 2.51346C6.04367 2.66221 6.00009 2.82969 6.00001 3.00001V13C6.00001 13.2652 6.10536 13.5196 6.2929 13.7071C6.48043 13.8947 6.73479 14 7.00001 14H27C27.2252 14 27.4438 13.924 27.6204 13.7843C27.797 13.6446 27.9213 13.4493 27.9731 13.2302C28.0249 13.0111 28.0013 12.7808 27.906 12.5768C27.8107 12.3728 27.6493 12.2069 27.448 12.106L7.44801 2.10601C7.29539 2.02962 7.12577 1.99356 6.95528 2.00126C6.78479 2.00896 6.61911 2.06017 6.47401 2.15001ZM22.764 12H8.00001V4.61801L22.764 12ZM6.00001 29C6.00001 29.1705 6.04362 29.3382 6.1267 29.4872C6.20978 29.6361 6.32956 29.7613 6.47466 29.8509C6.61976 29.9405 6.78536 29.9914 6.95572 29.999C7.12609 30.0065 7.29555 29.9704 7.44801 29.894L27.448 19.894C27.6493 19.7931 27.8107 19.6272 27.906 19.4232C28.0013 19.2192 28.0249 18.989 27.9731 18.7698C27.9213 18.5507 27.797 18.3555 27.6204 18.2158C27.4438 18.076 27.2252 18 27 18H7.00001C6.73479 18 6.48043 18.1054 6.2929 18.2929C6.10536 18.4804 6.00001 18.7348 6.00001 19V29Z" fill="black"/>
</svg>
